<svg width="37" height="37" viewBox="0 0 37 37" fill="none" xmlns="http://www.w3.org/2000/svg">
<circle cx="18.5" cy="18.5" r="18.5" fill="#292929"/>
<path d="M12.4 21.1372C12.4011 21.0247 12.4481 20.9124 12.5412 20.8246L12.5412 20.8246L18.1308 15.551C18.1308 15.5509 18.1309 15.5509 18.1309 15.5509C18.2292 15.4582 18.3616 15.4085 18.4999 15.4085C18.6382 15.4085 18.7708 15.4583 18.8691 15.551L24.4587 20.8247L24.4588 20.8248C24.5516 20.9124 24.5987 21.0243 24.6 21.1365C24.5989 21.249 24.5519 21.3612 24.4588 21.4489L24.4587 21.449C24.2574 21.639 23.9216 21.6389 23.7204 21.449L23.7204 21.449L18.7744 16.7826L18.4999 16.5236L18.2254 16.7826L13.2797 21.4488C13.2797 21.4488 13.2796 21.4489 13.2796 21.4489C13.0781 21.6389 12.7424 21.6388 12.5412 21.4489L12.5411 21.4488C12.4483 21.3613 12.4013 21.2494 12.4 21.1372Z" fill="white" stroke="white" stroke-width="0.8"/>
</svg>
