<svg width="24" height="24" viewBox="0 0 24 24" fill="none" xmlns="http://www.w3.org/2000/svg">
<path d="M23.9953 5.91909C23.9673 5.66095 23.8069 5.43248 23.5671 5.32059L12.3171 0.0705918C12.1161 -0.0232051 11.8838 -0.0232051 11.6828 0.0705918L0.432797 5.32059C0.193078 5.43248 0.0326719 5.6609 0.00459375 5.91909C0.00398437 5.92448 0 5.99629 0 6.00023V18.7502C0 19.0569 0.186703 19.3327 0.471469 19.4466L11.7215 23.9466C11.8109 23.9823 11.9055 24.0002 12 24.0002C12.0945 24.0002 12.1891 23.9824 12.2785 23.9466L23.5285 19.4466C23.8133 19.3327 24 19.0569 24 18.7502V6.00023C24 5.99629 23.9959 5.92444 23.9953 5.91909ZM12 1.57786L21.363 5.94726L17.7577 7.38942L8.21845 3.34261L12 1.57786ZM6.38953 4.19611L15.7808 8.18015L12 9.69244L2.637 5.94726L6.38953 4.19611ZM1.5 7.10798L11.25 11.008V22.1424L1.5 18.2424V7.10798ZM12.75 22.1425V11.008L22.5 7.10798V18.2424L12.75 22.1425Z" fill="white"/>
</svg>
