<svg width="13" height="13" viewBox="0 0 13 13" fill="none" xmlns="http://www.w3.org/2000/svg">
<path d="M10.1562 4.875H9.75V3.25C9.75 1.45758 8.29242 0 6.5 0C4.70758 0 3.25 1.45758 3.25 3.25V4.875H2.84375C2.17209 4.875 1.625 5.42149 1.625 6.09375V11.7812C1.625 12.4535 2.17209 13 2.84375 13H10.1562C10.8279 13 11.375 12.4535 11.375 11.7812V6.09375C11.375 5.42149 10.8279 4.875 10.1562 4.875ZM4.33337 3.25C4.33337 2.05505 5.30505 1.08337 6.5 1.08337C7.69495 1.08337 8.66663 2.05505 8.66663 3.25V4.875H4.33337V3.25Z" fill="#8F8F8F"/>
</svg>
