<svg width="28" height="28" viewBox="0 0 28 28" fill="none" xmlns="http://www.w3.org/2000/svg">
<g clip-path="url(#clip0)">
<path d="M27.823 4.07236C27.6697 3.88079 27.4377 3.76928 27.1923 3.76928H5.69581L5.09469 1.16451C5.01009 0.798054 4.68377 0.538452 4.30768 0.538452H0.80768C0.361648 0.538452 0 0.9001 0 1.34619C0 1.79227 0.361648 2.15387 0.80768 2.15387H3.66516L7.7455 19.8355C7.83005 20.2019 8.15642 20.4615 8.53251 20.4615H24.7154C25.1614 20.4615 25.523 20.0999 25.523 19.6539C25.523 19.2078 25.1614 18.8462 24.7154 18.8462H9.17509L8.55384 16.1539H24.7693C25.1471 16.1539 25.4744 15.892 25.5573 15.5235L27.9803 4.75426C28.0342 4.51483 27.9763 4.26398 27.823 4.07236Z" fill="#7D7D7D"/>
<path d="M11.8463 21.5385C10.2133 21.5385 8.88477 22.867 8.88477 24.5C8.88477 26.133 10.2133 27.4615 11.8463 27.4615C13.4793 27.4615 14.8079 26.133 14.8079 24.5C14.8079 22.867 13.4793 21.5385 11.8463 21.5385Z" fill="#7D7D7D"/>
<path d="M21.5382 21.5385C19.9052 21.5385 18.5767 22.867 18.5767 24.5C18.5767 26.133 19.9052 27.4615 21.5382 27.4615C23.1712 27.4615 24.4998 26.133 24.4998 24.5C24.4998 22.867 23.1712 21.5385 21.5382 21.5385Z" fill="#7D7D7D"/>
</g>
<defs>
<clipPath id="clip0">
<rect width="28" height="28" fill="white"/>
</clipPath>
</defs>
</svg>
