<svg width="24" height="24" viewBox="0 0 24 24" fill="none" xmlns="http://www.w3.org/2000/svg">
<g clip-path="url(#clip0)">
<path d="M21.75 21.0001H2.25001C1.0093 21.0001 0 19.9908 0 18.75V15C0 14.5855 0.335439 14.25 0.750005 14.25C1.99072 14.25 3.00002 13.2407 3.00002 12C3.00002 10.7593 1.99072 9.74999 0.750005 9.74999C0.335439 9.75004 0 9.4146 0 9.00004V5.25001C0 4.0093 1.0093 3 2.25001 3H21.75C22.9908 3 24 4.0093 24 5.25001V9.00004C24 9.4146 23.6646 9.75004 23.25 9.75004C22.0093 9.75004 21 10.7593 21 12.0001C21 13.2408 22.0093 14.2501 23.25 14.2501C23.6646 14.2501 24 14.5855 24 15.0001V18.7501C24 19.9908 22.9908 21.0001 21.75 21.0001ZM1.50001 15.6746V18.75C1.50001 19.1639 1.83621 19.5001 2.25001 19.5001H21.75C22.1638 19.5001 22.5 19.1639 22.5 18.75V15.6746C20.7906 15.326 19.5 13.8113 19.5 12C19.5 10.1887 20.7905 8.67409 22.5 8.32542V5.25001C22.5 4.83621 22.1638 4.50001 21.75 4.50001H2.25001C1.83621 4.50001 1.50001 4.83621 1.50001 5.25001V8.32547C3.20947 8.67409 4.50003 10.1887 4.50003 12.0001C4.50003 13.8114 3.20947 15.326 1.50001 15.6746Z" fill="#C4C4C4"/>
<path d="M9.04819 17.7264L13.5466 5.73065L14.9511 6.25733L10.4527 18.2531L9.04819 17.7264Z" fill="#C4C4C4"/>
<path d="M8.45198 12.2525C7.21126 12.2525 6.20197 11.2432 6.20197 10.0024C6.20197 8.76174 7.21126 7.75244 8.45198 7.75244C9.6927 7.75244 10.702 8.76174 10.702 10.0024C10.702 11.2432 9.6927 12.2525 8.45198 12.2525ZM8.45198 9.25245C8.03817 9.25245 7.70198 9.58864 7.70198 10.0024C7.70198 10.4163 8.03817 10.7524 8.45198 10.7524C8.86579 10.7524 9.20198 10.4163 9.20198 10.0024C9.20198 9.58864 8.86579 9.25245 8.45198 9.25245Z" fill="#C4C4C4"/>
<path d="M16.2045 16.904C14.9637 16.904 13.9544 15.8947 13.9544 14.6539C13.9544 13.4132 14.9637 12.4039 16.2045 12.4039C17.4452 12.4039 18.4545 13.4132 18.4545 14.6539C18.4545 15.8947 17.4452 16.904 16.2045 16.904ZM16.2045 13.9039C15.7906 13.9039 15.4545 14.2401 15.4545 14.6539C15.4545 15.0678 15.7906 15.404 16.2045 15.404C16.6183 15.404 16.9545 15.0678 16.9545 14.6539C16.9545 14.2401 16.6183 13.9039 16.2045 13.9039Z" fill="#C4C4C4"/>
</g>
<defs>
<clipPath id="clip0">
<rect width="24" height="24" fill="white"/>
</clipPath>
</defs>
</svg>
