<svg width="24" height="24" viewBox="0 0 24 24" fill="none" xmlns="http://www.w3.org/2000/svg">
<g clip-path="url(#clip0)">
<path d="M21.75 21H2.25001C1.0093 21 0 19.9907 0 18.75V15C0 14.5854 0.335439 14.25 0.750005 14.25C1.99072 14.25 3.00002 13.2407 3.00002 12C3.00002 10.7593 1.99072 9.74996 0.750005 9.74996C0.335439 9.75001 0 9.41457 0 9.00001V5.24998C0 4.00927 1.0093 2.99997 2.25001 2.99997H21.75C22.9908 2.99997 24 4.00927 24 5.24998V9.00001C24 9.41457 23.6646 9.75001 23.25 9.75001C22.0093 9.75001 21 10.7593 21 12C21 13.2407 22.0093 14.25 23.25 14.25C23.6646 14.25 24 14.5855 24 15V18.7501C24 19.9907 22.9908 21 21.75 21ZM1.50001 15.6746V18.75C1.50001 19.1638 1.83621 19.5 2.25001 19.5H21.75C22.1638 19.5 22.5 19.1638 22.5 18.75V15.6746C20.7906 15.3259 19.5 13.8113 19.5 12C19.5 10.1887 20.7905 8.67406 22.5 8.32539V5.24998C22.5 4.83618 22.1638 4.49998 21.75 4.49998H2.25001C1.83621 4.49998 1.50001 4.83618 1.50001 5.24998V8.32544C3.20947 8.67406 4.50003 10.1887 4.50003 12C4.50003 13.8113 3.20947 15.3259 1.50001 15.6746Z" fill="white"/>
<path d="M9.04816 17.7264L13.5466 5.73065L14.951 6.25733L10.4526 18.2531L9.04816 17.7264Z" fill="white"/>
<path d="M8.45198 12.2525C7.21126 12.2525 6.20197 11.2432 6.20197 10.0025C6.20197 8.76177 7.21126 7.75247 8.45198 7.75247C9.6927 7.75247 10.702 8.76177 10.702 10.0025C10.702 11.2432 9.6927 12.2525 8.45198 12.2525ZM8.45198 9.25248C8.03817 9.25248 7.70198 9.58867 7.70198 10.0025C7.70198 10.4163 8.03817 10.7525 8.45198 10.7525C8.86579 10.7525 9.20198 10.4163 9.20198 10.0025C9.20198 9.58867 8.86579 9.25248 8.45198 9.25248Z" fill="white"/>
<path d="M16.2045 16.904C14.9638 16.904 13.9545 15.8947 13.9545 14.6539C13.9545 13.4132 14.9638 12.4039 16.2045 12.4039C17.4452 12.4039 18.4545 13.4132 18.4545 14.6539C18.4545 15.8947 17.4452 16.904 16.2045 16.904ZM16.2045 13.9039C15.7907 13.9039 15.4545 14.2401 15.4545 14.6539C15.4545 15.0678 15.7907 15.404 16.2045 15.404C16.6183 15.404 16.9545 15.0678 16.9545 14.6539C16.9545 14.2401 16.6183 13.9039 16.2045 13.9039Z" fill="white"/>
</g>
<defs>
<clipPath id="clip0">
<rect width="24" height="24" fill="white"/>
</clipPath>
</defs>
</svg>
