<svg width="9" height="9" viewBox="0 0 9 9" fill="none" xmlns="http://www.w3.org/2000/svg">
<path d="M8.21126 0.12208C8.04848 -0.0406934 7.78481 -0.0406934 7.62208 0.12208L4.16665 3.57751L0.71126 0.122119C0.548487 -0.040654 0.284814 -0.040654 0.12208 0.122119C-0.0406934 0.284893 -0.0406934 0.548565 0.12208 0.711299L3.57747 4.16669L0.12208 7.62208C-0.0406934 7.78485 -0.0406934 8.04853 0.12208 8.21126C0.203447 8.29263 0.310088 8.33333 0.41669 8.33333C0.523291 8.33333 0.629892 8.29263 0.711299 8.21126L4.16665 4.75587L7.62204 8.21126C7.70341 8.29263 7.81005 8.33333 7.91665 8.33333C8.02325 8.33333 8.12985 8.29263 8.21126 8.21126C8.37403 8.04849 8.37403 7.78482 8.21126 7.62208L4.75583 4.16669L8.21122 0.711299C8.37399 0.548526 8.37399 0.284854 8.21126 0.12208Z" fill="#7D7D7D"/>
</svg>
