<svg width="16" height="16" viewBox="0 0 16 16" fill="none" xmlns="http://www.w3.org/2000/svg">
<path d="M15.3333 12.6667H13.558C13.2693 11.706 12.3867 11 11.3333 11C10.28 11 9.398 11.706 9.10869 12.6667H0.666656C0.298656 12.6667 0 12.9653 0 13.3333C0 13.7013 0.298656 14 0.666656 14H9.10866C9.39731 14.9607 10.28 15.6667 11.3333 15.6667C12.3866 15.6667 13.2687 14.9607 13.558 14H15.3333C15.702 14 16 13.7013 16 13.3333C16 12.9653 15.702 12.6667 15.3333 12.6667ZM11.3333 14.3333C10.782 14.3333 10.3333 13.8847 10.3333 13.3333C10.3333 12.782 10.782 12.3333 11.3333 12.3333C11.8847 12.3333 12.3333 12.782 12.3333 13.3333C12.3333 13.8847 11.8847 14.3333 11.3333 14.3333Z" fill="#292929"/>
<path d="M15.3333 2.00003H13.558C13.2687 1.03937 12.3867 0.333374 11.3333 0.333374C10.28 0.333374 9.398 1.03937 9.10866 2.00003H0.666656C0.298656 2.00003 0 2.29869 0 2.66669C0 3.03469 0.298656 3.33334 0.666656 3.33334H9.10866C9.398 4.29403 10.28 5.00003 11.3333 5.00003C12.3867 5.00003 13.2687 4.29403 13.558 3.33337H15.3333C15.702 3.33337 16 3.03472 16 2.66672C16 2.29872 15.702 2.00003 15.3333 2.00003ZM11.3333 3.66669C10.782 3.66669 10.3333 3.21803 10.3333 2.66669C10.3333 2.11534 10.782 1.66669 11.3333 1.66669C11.8847 1.66669 12.3333 2.11534 12.3333 2.66669C12.3333 3.21803 11.8847 3.66669 11.3333 3.66669Z" fill="#292929"/>
<path d="M15.3333 7.33336H6.89134C6.602 6.37269 5.72 5.66669 4.66669 5.66669C3.61337 5.66669 2.73134 6.37269 2.44203 7.33336H0.666656C0.298656 7.33336 0 7.63202 0 8.00002C0 8.36802 0.298656 8.66668 0.666656 8.66668H2.442C2.73134 9.62735 3.61334 10.3334 4.66666 10.3334C5.71997 10.3334 6.602 9.62735 6.89131 8.66668H15.3333C15.702 8.66668 16 8.36802 16 8.00002C16 7.63202 15.702 7.33336 15.3333 7.33336ZM4.66666 9.00003C4.11531 9.00003 3.66666 8.55137 3.66666 8.00002C3.66666 7.44867 4.11531 7.00001 4.66666 7.00001C5.218 7.00001 5.66666 7.44867 5.66666 8.00002C5.66666 8.55137 5.218 9.00003 4.66666 9.00003Z" fill="#292929"/>
</svg>
