<svg width="52" height="43" viewBox="0 0 52 43" fill="none" xmlns="http://www.w3.org/2000/svg">
<rect width="52" height="43" rx="5" fill="#DE7903" fill-opacity="0.2"/>
<g clip-path="url(#clip0)">
<path d="M40.7782 11.9187L21.1798 7.77111C20.3506 7.59569 19.5287 8.13064 19.3533 8.95983L18.981 11.3526L41.5943 16.138L41.9666 13.7452C42.142 12.9163 41.6074 12.0942 40.7782 11.9187Z" fill="url(#paint0_linear)"/>
<path d="M32.5366 16.6455C32.3077 15.8211 31.4462 15.3338 30.6221 15.5624L26.9016 16.5952L18.1307 14.739L17.1661 19.2967L11.1392 20.9695C10.3151 21.1981 9.82783 22.0596 10.0564 22.8837L13.4529 35.1231C13.6818 35.9472 14.5434 36.4348 15.3674 36.2059L34.8503 30.7992C35.6744 30.5703 36.1616 29.7091 35.9331 28.8847L35.3501 26.7835L37.5351 27.2455C38.3643 27.4212 39.1862 26.8863 39.3616 26.0571L40.7441 19.5244L32.8734 17.8589L32.5366 16.6455ZM34.7866 22.8661L35.2684 20.5888C35.3408 20.2479 35.6789 20.0279 36.0198 20.0999L38.297 20.5821C38.6383 20.6545 38.8582 20.9922 38.7862 21.3335L38.3044 23.6107C38.232 23.9517 37.894 24.1719 37.553 24.0996L35.2758 23.6178C34.9342 23.5451 34.7142 23.207 34.7866 22.8661ZM11.4782 22.1909L16.8699 20.6951L29.5915 17.1648L30.9604 16.7845C30.9854 16.7777 31.0103 16.7745 31.0347 16.7745C31.1445 16.7745 31.2758 16.8466 31.3142 16.9846L31.4749 17.5634L31.9785 19.378L11.9424 24.9381L11.2781 22.545C11.2365 22.3948 11.3281 22.2325 11.4782 22.1909ZM34.7113 29.2233C34.737 29.3162 34.7101 29.393 34.6828 29.4411C34.656 29.4891 34.6041 29.5519 34.5112 29.5774L15.0287 34.9842C15.0041 34.9909 14.9788 34.9944 14.9544 34.9944C14.8446 34.9944 14.7133 34.922 14.6749 34.7841L12.6938 27.645L32.7299 22.0846L33.952 26.4876L34.7113 29.2233Z" fill="url(#paint1_linear)"/>
<path d="M18.1767 29.7118C18.0833 29.3756 17.7323 29.1771 17.3962 29.2703L15.1209 29.902C14.785 29.9951 14.5862 30.3463 14.6797 30.6825L15.311 32.9575C15.4045 33.2937 15.7554 33.4921 16.0916 33.3987L18.3669 32.7673C18.7031 32.6742 18.9016 32.3229 18.8084 31.9868L18.1767 29.7118Z" fill="url(#paint2_linear)"/>
</g>
<defs>
<linearGradient id="paint0_linear" x1="18.981" y1="16.138" x2="39.1226" y2="16.138" gradientUnits="userSpaceOnUse">
<stop stop-color="#DE7903"/>
<stop offset="1" stop-color="#F7911E"/>
</linearGradient>
<linearGradient id="paint1_linear" x1="10" y1="36.2624" x2="36.9011" y2="36.2624" gradientUnits="userSpaceOnUse">
<stop stop-color="#DE7903"/>
<stop offset="1" stop-color="#F7911E"/>
</linearGradient>
<linearGradient id="paint2_linear" x1="14.6566" y1="33.4218" x2="18.3095" y2="33.4218" gradientUnits="userSpaceOnUse">
<stop stop-color="#DE7903"/>
<stop offset="1" stop-color="#F7911E"/>
</linearGradient>
<clipPath id="clip0">
<rect width="32" height="32" fill="white" transform="translate(10 6)"/>
</clipPath>
</defs>
</svg>
