<svg width="52" height="43" viewBox="0 0 52 43" fill="none" xmlns="http://www.w3.org/2000/svg">
<rect width="52" height="43" rx="5" fill="#DE7903" fill-opacity="0.2"/>
<path d="M36.6143 27.0161C35.7591 27.0161 34.9466 27.3511 34.3337 27.9569C33.7208 28.5698 33.3787 29.368 33.3787 30.2232C33.3787 31.0784 33.7137 31.8766 34.3337 32.4896C34.9538 33.0953 35.7591 33.4303 36.6143 33.4303C38.3675 33.4303 39.7929 31.9907 39.7929 30.2232C39.7929 28.4558 38.3675 27.0161 36.6143 27.0161ZM36.6143 32.0049C35.6308 32.0049 34.8041 31.1925 34.8041 30.2232C34.8041 29.254 35.6308 28.4415 36.6143 28.4415C37.5836 28.4415 38.3675 29.2397 38.3675 30.2232C38.3675 31.2067 37.5836 32.0049 36.6143 32.0049ZM37.4411 16.333C37.3128 16.2118 37.1417 16.1477 36.9636 16.1477H33.3075C32.9155 16.1477 32.5948 16.4684 32.5948 16.8604V22.7044C32.5948 23.0964 32.9155 23.4171 33.3075 23.4171H39.1087C39.5007 23.4171 39.8214 23.0964 39.8214 22.7044V18.7917C39.8214 18.5922 39.7359 18.3998 39.5862 18.2643L37.4411 16.333ZM38.396 21.9917H34.0202V17.5659H36.6856L38.396 19.1053V21.9917ZM19.2105 27.0161C18.3553 27.0161 17.5429 27.3511 16.93 27.9569C16.317 28.5698 15.975 29.368 15.975 30.2232C15.975 31.0784 16.3099 31.8766 16.93 32.4896C17.55 33.0953 18.3553 33.4303 19.2105 33.4303C20.9638 33.4303 22.3891 31.9907 22.3891 30.2232C22.3891 28.4558 20.9638 27.0161 19.2105 27.0161ZM19.2105 32.0049C18.227 32.0049 17.4003 31.1925 17.4003 30.2232C17.4003 29.254 18.227 28.4415 19.2105 28.4415C20.1798 28.4415 20.9638 29.2397 20.9638 30.2232C20.9638 31.2067 20.1798 32.0049 19.2105 32.0049ZM14.4569 27.8927H13.0244V25.997C13.0244 25.605 12.7037 25.2843 12.3117 25.2843C11.9198 25.2843 11.5991 25.605 11.5991 25.997V28.6054C11.5991 28.9974 11.9198 29.3181 12.3117 29.3181H14.4569C14.8489 29.3181 15.1696 28.9974 15.1696 28.6054C15.1696 28.2134 14.8489 27.8927 14.4569 27.8927ZM18.0703 24.0086C18.0703 23.6166 17.7495 23.2959 17.3576 23.2959H8.71269C8.32071 23.2959 8 23.6166 8 24.0086C8 24.4006 8.32071 24.7213 8.71269 24.7213H17.3576C17.7495 24.7213 18.0703 24.4077 18.0703 24.0086ZM10.1594 21.4358L18.8043 21.4857C19.1963 21.4857 19.517 21.1721 19.5241 20.7801C19.5313 20.381 19.2105 20.0603 18.8186 20.0603L10.1737 20.0104C10.1666 20.0104 10.1666 20.0104 10.1666 20.0104C9.77459 20.0104 9.45388 20.324 9.45388 20.716C9.44675 21.1151 9.76746 21.4358 10.1594 21.4358ZM11.6133 18.2002H20.2582C20.6502 18.2002 20.9709 17.8795 20.9709 17.4875C20.9709 17.0955 20.6502 16.7748 20.2582 16.7748H11.6133C11.2213 16.7748 10.9006 17.0955 10.9006 17.4875C10.9006 17.8795 11.2213 18.2002 11.6133 18.2002ZM42.7363 17.2381L37.6335 13.0119C37.5052 12.9049 37.3484 12.8479 37.1774 12.8479H31.1765V10.2823C31.1765 9.89029 30.8558 9.56958 30.4639 9.56958H12.3117C11.9198 9.56958 11.5991 9.89029 11.5991 10.2823V15.4991C11.5991 15.8911 11.9198 16.2118 12.3117 16.2118C12.7037 16.2118 13.0244 15.8911 13.0244 15.4991V10.995H29.7583V27.8927H23.9143C23.5223 27.8927 23.2016 28.2134 23.2016 28.6054C23.2016 28.9974 23.5223 29.3181 23.9143 29.3181H32.6162C33.0081 29.3181 33.3289 28.9974 33.3289 28.6054C33.3289 28.2134 33.0081 27.8927 32.6162 27.8927H31.1837V14.2733H36.9279L41.5746 18.1218L41.5247 27.8785H40.7835C40.3916 27.8785 40.0709 28.1992 40.0709 28.5912C40.0709 28.9831 40.3916 29.3038 40.7835 29.3038H42.2303C42.6223 29.3038 42.943 28.9903 42.943 28.5983L43 17.794C42.9929 17.5802 42.9002 17.3735 42.7363 17.2381Z" fill="url(#paint0_linear)"/>
<defs>
<linearGradient id="paint0_linear" x1="8" y1="33.4303" x2="38.625" y2="33.4303" gradientUnits="userSpaceOnUse">
<stop stop-color="#DE7903"/>
<stop offset="1" stop-color="#F7911E"/>
</linearGradient>
</defs>
</svg>
