<svg width="52" height="43" viewBox="0 0 52 43" fill="none" xmlns="http://www.w3.org/2000/svg">
<rect width="52" height="43" rx="5" fill="#DE7903" fill-opacity="0.2"/>
<g clip-path="url(#clip0)">
<path d="M40.8791 16.9811L35.5471 7.89539C35.3026 7.47884 34.7679 7.33757 34.3497 7.5791L31.1541 9.42404L28.2757 8.36531C27.3754 8.03419 26.3826 8.11933 25.5519 8.59898L21.181 11.1226L17.306 8.88527C17.1 8.76632 16.8547 8.73603 16.6258 8.80113C16.3971 8.86628 16.2045 9.02132 16.092 9.23103L11.1045 18.5299C10.8802 18.9482 11.0285 19.4692 11.4396 19.7065L13.4187 20.8492L12.4262 22.5683C11.6992 23.8274 12.1322 25.4431 13.3913 26.1701C13.9757 26.5075 14.6368 26.5946 15.2503 26.4657C15.4454 27.0615 15.8515 27.5905 16.4359 27.9279C17.0203 28.2653 17.6814 28.3525 18.2949 28.2235C18.49 28.8193 18.896 29.3483 19.4805 29.6857C20.0649 30.0231 20.726 30.1103 21.3395 29.9813C21.5346 30.5771 21.9407 31.1061 22.5251 31.4435C23.7842 32.1705 25.3999 31.7375 26.1269 30.4784L26.2405 30.2817L29.5388 32.186C30.7979 32.913 32.4136 32.48 33.1406 31.2209C33.3122 30.9237 33.4183 30.6066 33.4651 30.2861C34.5866 30.5815 35.8136 30.1068 36.4207 29.0552C36.6297 28.6931 36.7424 28.3015 36.7675 27.91C37.7269 27.9603 38.6809 27.484 39.1933 26.5965C39.7057 25.709 39.6412 24.6446 39.1179 23.8389C39.4444 23.6214 39.7272 23.328 39.9363 22.9659C40.6432 21.7416 40.2531 20.1804 39.0734 19.4266L40.6795 18.1045C41.0132 17.8299 41.0977 17.3536 40.8791 16.9811ZM26.4308 10.1213C26.8084 9.90322 27.2595 9.8646 27.6689 10.0151L30.9337 11.216C31.1786 11.306 31.4506 11.2826 31.6765 11.1522L34.4728 9.53777L38.9834 17.224L37.4505 18.4861L26.8939 12.3912C26.6219 12.2341 26.2869 12.2341 26.0149 12.3912L21.1563 15.1963C20.7519 15.4409 20.1835 15.2886 19.9557 14.8746C19.7111 14.4704 19.8634 13.9017 20.2774 13.674L26.4308 10.1213ZM14.2702 24.6477C13.8505 24.4054 13.7062 23.8669 13.9486 23.4472L15.4134 20.91C15.6557 20.4903 16.1943 20.346 16.614 20.5883C17.0337 20.8307 17.178 21.3692 16.9357 21.7889L15.4708 24.3261C15.2285 24.7458 14.6899 24.8901 14.2702 24.6477ZM17.3148 26.4056C16.8951 26.1632 16.7508 25.6247 16.9932 25.205L19.0439 21.6529C19.2863 21.2331 19.8248 21.0889 20.2445 21.3312C20.6642 21.5736 20.8085 22.1121 20.5662 22.5318L18.5154 26.0839C18.2731 26.5036 17.7345 26.6479 17.3148 26.4056ZM20.3594 28.1634C19.9397 27.921 19.7954 27.3825 20.0377 26.9628L21.5026 24.4256C21.7449 24.0059 22.2835 23.8616 22.7032 24.1039C23.1229 24.3463 23.2672 24.8848 23.0249 25.3045L21.56 27.8417C21.3177 28.2614 20.7792 28.4057 20.3594 28.1634ZM23.4041 29.9212C22.9844 29.6789 22.84 29.1403 23.0823 28.7206L23.9612 27.1983C24.2036 26.7786 24.7422 26.6343 25.1619 26.8766C25.5816 27.1189 25.7259 27.6575 25.4836 28.0772L24.6047 29.5995C24.3624 30.0193 23.8238 30.1636 23.4041 29.9212ZM37.6712 25.7176C37.4288 26.1373 36.8903 26.2816 36.4706 26.0393L31.9037 23.4026C31.4833 23.1599 30.9458 23.3039 30.7031 23.7243C30.4604 24.1446 30.6044 24.6821 31.0248 24.9248L34.5768 26.9756C34.9965 27.218 35.1408 27.7565 34.8985 28.1762C34.6561 28.5959 34.1176 28.7402 33.6979 28.4979L30.1459 26.4471C29.7255 26.2044 29.188 26.3484 28.9453 26.7688C28.7026 27.1891 28.8466 27.7267 29.267 27.9694L31.2967 29.1412C31.7164 29.3836 31.8607 29.9221 31.6184 30.3418C31.376 30.7615 30.8375 30.9059 30.4178 30.6635L27.1105 28.754C27.6842 27.5289 27.2336 26.0428 26.0408 25.3542C25.6787 25.1451 25.2871 25.0324 24.8956 25.0073C24.9459 24.0479 24.4697 23.0938 23.5821 22.5814C23.22 22.3723 22.8284 22.2597 22.4369 22.2346C22.4873 21.2752 22.0109 20.3211 21.1234 19.8087C20.2359 19.2963 19.1716 19.3608 18.3659 19.8841C18.1484 19.5577 17.855 19.2748 17.4929 19.0658C16.4795 18.4806 15.2354 18.6475 14.4093 19.3911L13.0562 18.6101L17.2125 10.861L19.4232 12.1375L19.3985 12.1518C18.7886 12.5039 18.3523 13.0725 18.1699 13.7528C17.9877 14.433 18.0812 15.1436 18.4334 15.7535C18.7855 16.3634 19.3541 16.7997 20.0344 16.982C20.7147 17.1642 21.4252 17.0708 22.0351 16.7186L26.4543 14.1672L38.0924 20.8865C38.5121 21.1288 38.6564 21.6674 38.414 22.0871C38.1717 22.5068 37.6332 22.6511 37.2134 22.4088L33.6614 20.358C33.2411 20.1153 32.7035 20.2593 32.4608 20.6797C32.2182 21.1 32.3622 21.6376 32.7825 21.8802L37.3494 24.517C37.7692 24.7593 37.9135 25.2979 37.6712 25.7176Z" fill="url(#paint0_linear)"/>
</g>
<defs>
<linearGradient id="paint0_linear" x1="11" y1="32.5388" x2="37.25" y2="32.5388" gradientUnits="userSpaceOnUse">
<stop stop-color="#DE7903"/>
<stop offset="1" stop-color="#F7911E"/>
</linearGradient>
<clipPath id="clip0">
<rect width="30" height="30" fill="white" transform="translate(11 5)"/>
</clipPath>
</defs>
</svg>
