<svg width="27" height="26" viewBox="0 0 27 26" fill="none" xmlns="http://www.w3.org/2000/svg">
<path d="M19.1514 2.15662H8.36812C5.39041 2.15662 2.9765 4.57053 2.9765 7.54824V18.3315C2.9765 21.3092 5.39041 23.7231 8.36812 23.7231H19.1514C22.1291 23.7231 24.543 21.3092 24.543 18.3315V7.54824C24.543 4.57053 22.1291 2.15662 19.1514 2.15662Z" stroke="white" stroke-width="2" stroke-linecap="round" stroke-linejoin="round"/>
<path d="M18.073 12.2606C18.2061 13.158 18.0528 14.0745 17.635 14.8798C17.2171 15.6851 16.556 16.3382 15.7456 16.746C14.9352 17.1539 14.0169 17.2959 13.1212 17.1518C12.2254 17.0076 11.398 16.5847 10.7564 15.9432C10.1149 15.3017 9.69202 14.4742 9.54789 13.5785C9.40375 12.6828 9.54573 11.7644 9.95362 10.954C10.3615 10.1437 11.0145 9.48253 11.8198 9.06468C12.6251 8.64683 13.5417 8.49354 14.4391 8.62662C15.3545 8.76236 16.202 9.18892 16.8564 9.8433C17.5107 10.4977 17.9373 11.3452 18.073 12.2606Z" stroke="white" stroke-width="2" stroke-linecap="round" stroke-linejoin="round"/>
<path d="M19.6905 7.00903H19.7013" stroke="white" stroke-width="2" stroke-linecap="round" stroke-linejoin="round"/>
</svg>
