<svg width="60" height="34" viewBox="0 0 60 34" fill="none" xmlns="http://www.w3.org/2000/svg">
<path d="M34.9423 11.3465C34.0056 10.0886 32.829 9.04239 31.4853 8.2727C30.1417 7.503 28.6595 7.02613 27.1303 6.87156C25.6012 6.71699 24.0576 6.888 22.595 7.37402C21.1324 7.86005 19.7818 8.65076 18.6267 9.69728L17.6288 8.91389C10.7732 3.92489 1.17344 8.16141 0.275332 16.7066C0.00212374 20.8234 -0.0678199 24.9519 0.0657737 29.076C0.0437342 29.6053 0.127235 30.1335 0.311092 30.628C0.49495 31.1225 0.775241 31.5727 1.13457 31.9506C1.49389 32.3286 1.92458 32.6262 2.39991 32.825C2.87524 33.0238 3.38505 33.1196 3.89771 33.1064C4.39943 33.1042 4.89554 32.9972 5.35622 32.7918C5.8169 32.5865 6.23264 32.2871 6.57846 31.9116C6.92427 31.5361 7.19302 31.0923 7.36855 30.6067C7.54409 30.1212 7.62278 29.6041 7.59991 29.0863C7.59991 26.1177 7.59991 23.149 7.59991 20.1701C7.59184 19.2869 7.6519 18.4045 7.77953 17.5312C7.9405 16.6374 8.4231 15.8397 9.13031 15.2985C9.83751 14.7574 10.7169 14.5128 11.5915 14.6141C12.4465 14.6807 13.2486 15.0671 13.8475 15.7009C14.4464 16.3347 14.8009 17.1724 14.8447 18.0569C14.8946 19.1496 14.8447 20.2422 14.8447 21.3348C14.8447 23.9943 14.8447 26.6537 14.8447 29.3131C14.8344 30.0845 15.0565 30.84 15.4802 31.4753C15.9039 32.1106 16.5083 32.5941 17.2097 32.859C19.7543 33.9516 22.3489 32.0344 22.3988 29.0142C22.3988 25.4992 22.3988 21.9842 22.4985 18.4693C22.5321 17.6196 22.7835 16.7943 23.227 16.0778C23.6493 15.4461 24.2612 14.9755 24.9682 14.7389C25.6753 14.5023 26.4381 14.5128 27.1388 14.7687C27.9292 14.9976 28.6202 15.4983 29.0975 16.1882C29.5747 16.878 29.8096 17.7155 29.7632 18.562C29.7632 22.1182 29.7632 25.6744 29.7632 29.2306C29.7632 29.741 29.8606 30.2463 30.0496 30.7178C30.2387 31.1893 30.5158 31.6177 30.8651 31.9785C31.2145 32.3394 31.6292 32.6256 32.0856 32.8209C32.5421 33.0162 33.0313 33.1167 33.5253 33.1167C34.0194 33.1167 34.5086 33.0162 34.965 32.8209C35.4214 32.6256 35.8362 32.3394 36.1855 31.9785C36.5349 31.6177 36.812 31.1893 37.001 30.7178C37.1901 30.2463 37.2874 29.741 37.2874 29.2306C37.2874 25.592 37.2874 22.0152 37.2874 18.3249C37.2942 15.7915 36.4673 13.3308 34.9423 11.3465Z" fill="#292929"/>
<path d="M53.7927 13.4081L52.6052 12.9031C53.7827 11.9547 54.9004 11.1404 55.8983 10.2127C56.7849 9.49168 57.5502 8.62448 58.1635 7.64606C59.9597 4.18262 57.4251 0.152256 53.4035 0.0594856C49.6913 0.00794642 45.9891 0.00794642 42.277 0.00794642C41.8222 -0.0245116 41.366 0.0427041 40.9383 0.205184C40.5105 0.367663 40.1208 0.621735 39.7947 0.950731C39.4687 1.27973 39.2137 1.67621 39.0464 2.11417C38.8792 2.55214 38.8034 3.02168 38.8242 3.492C38.7798 3.97104 38.8367 4.45433 38.9911 4.90838C39.1455 5.36244 39.3936 5.77638 39.7182 6.12154C40.0429 6.46669 40.4363 6.73479 40.8712 6.90726C41.3061 7.07973 41.7722 7.15244 42.237 7.12036C44.0532 7.12036 45.8694 7.12036 47.6856 7.12036C47.9949 7.22344 48.3142 7.22344 48.913 7.22344C46.4482 9.28501 44.173 11.2435 41.9277 13.1814C40.4807 14.4183 40.0417 15.7686 40.5506 17.3045C40.8209 18.0626 41.3246 18.7081 41.9844 19.142C42.6442 19.5759 43.4235 19.7741 44.2029 19.7062C46.1288 19.7062 48.0648 19.7062 49.9907 19.7062C50.4226 19.6237 50.8668 19.6404 51.2918 19.7551C51.7168 19.8698 52.1121 20.0797 52.4498 20.3699C52.7874 20.6601 53.0591 21.0235 53.2456 21.4344C53.432 21.8452 53.5287 22.2933 53.5287 22.747C53.5287 23.2008 53.432 23.6489 53.2456 24.0597C53.0591 24.4706 52.7874 24.834 52.4498 25.1242C52.1121 25.4144 51.7168 25.6243 51.2918 25.739C50.8668 25.8537 50.4226 25.8704 49.9907 25.7879C47.496 25.7879 45.0012 25.7879 42.5065 25.7879C41.6319 25.8367 40.8088 26.2299 40.2065 26.8867C39.6041 27.5434 39.2684 28.4136 39.2684 29.3183C39.2684 30.223 39.6041 31.0932 40.2065 31.7499C40.8088 32.4067 41.6319 32.7999 42.5065 32.8487C45.111 32.8487 47.7255 32.8487 50.33 32.8487C52.6179 32.7888 54.8163 31.9183 56.5568 30.3832C58.2973 28.8481 59.4741 26.7416 59.8899 24.4169C60.2213 22.1409 59.7997 19.8159 58.6932 17.8181C57.5868 15.8203 55.8601 14.2665 53.7927 13.4081Z" fill="#292929"/>
</svg>
