<svg width="29" height="16" viewBox="0 0 29 16" fill="none" xmlns="http://www.w3.org/2000/svg">
<path d="M17.0307 5.35243C16.5833 4.75902 16.0213 4.26553 15.3795 3.90245C14.7376 3.53937 14.0296 3.31442 13.2992 3.2415C12.5688 3.16859 11.8315 3.24926 11.1328 3.47852C10.4342 3.70779 9.78905 4.08078 9.23731 4.57445L8.76065 4.20491C5.48598 1.85151 0.900479 3.84995 0.471483 7.88088C0.34098 9.82284 0.307571 11.7703 0.371384 13.7158C0.360856 13.9654 0.400742 14.2146 0.488564 14.4479C0.576387 14.6811 0.710272 14.8935 0.88191 15.0718C1.05355 15.25 1.25928 15.3904 1.48632 15.4842C1.71337 15.578 1.95689 15.6232 2.20177 15.617C2.44143 15.6159 2.6784 15.5654 2.89845 15.4686C3.11851 15.3717 3.31709 15.2305 3.48227 15.0534C3.64746 14.8762 3.77583 14.6669 3.85968 14.4378C3.94352 14.2088 3.98111 13.9648 3.97019 13.7206C3.97019 12.3202 3.97019 10.9199 3.97019 9.51465C3.96633 9.09805 3.99502 8.68181 4.05599 8.26987C4.13287 7.84825 4.3634 7.47196 4.70121 7.21667C5.03901 6.96138 5.45905 6.84603 5.87684 6.89381C6.28524 6.92523 6.66838 7.10751 6.95445 7.40648C7.24052 7.70546 7.40987 8.10061 7.43076 8.51785C7.45459 9.03327 7.43076 9.54868 7.43076 10.0641C7.43076 11.3186 7.43076 12.5731 7.43076 13.8276C7.42587 14.1915 7.53195 14.5479 7.73434 14.8475C7.93673 15.1472 8.22541 15.3753 8.56045 15.5003C9.77594 16.0157 11.0153 15.1113 11.0391 13.6866C11.0391 12.0285 11.0391 10.3704 11.0868 8.71235C11.1028 8.31153 11.2229 7.92225 11.4347 7.58427C11.6364 7.28625 11.9287 7.06429 12.2665 6.95267C12.6042 6.84106 12.9685 6.846 13.3032 6.96675C13.6808 7.07469 14.0109 7.31091 14.2388 7.63632C14.4668 7.96172 14.579 8.35679 14.5569 8.75611C14.5569 10.4336 14.5569 12.1112 14.5569 13.7887C14.5569 14.0294 14.6033 14.2678 14.6937 14.4902C14.784 14.7126 14.9163 14.9147 15.0832 15.0849C15.2501 15.2551 15.4482 15.3902 15.6662 15.4823C15.8842 15.5744 16.1179 15.6218 16.3539 15.6218C16.5899 15.6218 16.8236 15.5744 17.0416 15.4823C17.2596 15.3902 17.4577 15.2551 17.6246 15.0849C17.7914 14.9147 17.9238 14.7126 18.0141 14.4902C18.1044 14.2678 18.1509 14.0294 18.1509 13.7887C18.1509 12.0723 18.1509 10.385 18.1509 8.64428C18.1542 7.44918 17.7592 6.28844 17.0307 5.35243Z" fill="#7D7D7D"/>
<path d="M26.035 6.32487L25.4678 6.08661C26.0302 5.63927 26.5641 5.25514 27.0407 4.81752C27.4642 4.4774 27.8298 4.06832 28.1228 3.60679C28.9808 1.97302 27.77 0.0718221 25.8491 0.0280605C24.0759 0.00374847 22.3075 0.00374847 20.5343 0.00374847C20.3171 -0.0115626 20.0992 0.0201443 19.8949 0.0967889C19.6905 0.173434 19.5044 0.293284 19.3486 0.448477C19.1929 0.60367 19.0711 0.790699 18.9912 0.997294C18.9113 1.20389 18.8751 1.42538 18.8851 1.64724C18.8638 1.87321 18.891 2.10119 18.9648 2.31538C19.0385 2.52956 19.157 2.72483 19.3121 2.88764C19.4671 3.05046 19.6551 3.17692 19.8628 3.25828C20.0706 3.33964 20.2932 3.37394 20.5152 3.3588C21.3828 3.3588 22.2503 3.3588 23.1178 3.3588C23.2656 3.40743 23.4181 3.40743 23.7041 3.40743C22.5268 4.37991 21.44 5.30376 20.3675 6.21789C19.6763 6.80138 19.4666 7.43836 19.7097 8.16285C19.8388 8.52047 20.0794 8.82497 20.3946 9.02963C20.7097 9.23429 21.082 9.3278 21.4543 9.29579C22.3742 9.29579 23.2989 9.29579 24.2189 9.29579C24.4252 9.25688 24.6374 9.26476 24.8404 9.31886C25.0434 9.37297 25.2322 9.47198 25.3935 9.60888C25.5548 9.74577 25.6846 9.91719 25.7736 10.111C25.8627 10.3048 25.9089 10.5162 25.9089 10.7302C25.9089 10.9442 25.8627 11.1556 25.7736 11.3494C25.6846 11.5432 25.5548 11.7146 25.3935 11.8515C25.2322 11.9884 25.0434 12.0874 24.8404 12.1415C24.6374 12.1956 24.4252 12.2035 24.2189 12.1646C23.0273 12.1646 21.8356 12.1646 20.6439 12.1646C20.2262 12.1876 19.833 12.3731 19.5453 12.6829C19.2576 12.9927 19.0972 13.4032 19.0972 13.83C19.0972 14.2567 19.2576 14.6672 19.5453 14.977C19.833 15.2868 20.2262 15.4723 20.6439 15.4954C21.888 15.4954 23.1369 15.4954 24.381 15.4954C25.4738 15.4671 26.5239 15.0565 27.3553 14.3323C28.1867 13.6082 28.7488 12.6145 28.9474 11.5179C29.1057 10.4443 28.9043 9.34753 28.3758 8.40513C27.8473 7.46273 27.0225 6.72978 26.035 6.32487Z" fill="#7D7D7D"/>
</svg>
