<svg width="65" height="65" viewBox="0 0 65 65" fill="none" xmlns="http://www.w3.org/2000/svg">
<path d="M58.5815 44.5542H20.7812L22.6792 40.6885L54.2144 40.6313C55.2808 40.6313 56.1948 39.8696 56.3853 38.8159L60.7524 14.3711C60.8667 13.73 60.6953 13.0698 60.2764 12.5684C60.0693 12.3216 59.811 12.1228 59.5195 11.9858C59.2279 11.8487 58.91 11.7768 58.5879 11.7749L18.4707 11.6416L18.1279 10.0293C17.9121 9.00098 16.9854 8.25195 15.9316 8.25195H6.12451C5.53024 8.25195 4.9603 8.48803 4.54008 8.90825C4.11986 9.32846 3.88379 9.8984 3.88379 10.4927C3.88379 11.087 4.11986 11.6569 4.54008 12.0771C4.9603 12.4973 5.53024 12.7334 6.12451 12.7334H14.1162L15.6143 19.8555L19.3022 37.7114L14.5542 45.4619C14.3076 45.7947 14.1591 46.1899 14.1255 46.6027C14.0918 47.0155 14.1744 47.4295 14.3638 47.7979C14.7446 48.5532 15.5127 49.0293 16.3633 49.0293H20.3496C19.4998 50.158 19.0407 51.5329 19.042 52.9458C19.042 56.5386 21.9619 59.4585 25.5547 59.4585C29.1475 59.4585 32.0674 56.5386 32.0674 52.9458C32.0674 51.5303 31.5977 50.1528 30.7598 49.0293H40.9858C40.136 50.158 39.677 51.5329 39.6782 52.9458C39.6782 56.5386 42.5981 59.4585 46.1909 59.4585C49.7837 59.4585 52.7036 56.5386 52.7036 52.9458C52.7036 51.5303 52.2339 50.1528 51.396 49.0293H58.5879C59.8193 49.0293 60.8286 48.0264 60.8286 46.7886C60.8249 46.1949 60.5866 45.6268 60.1656 45.2082C59.7446 44.7896 59.1752 44.5545 58.5815 44.5542ZM19.4038 16.0596L55.9536 16.1802L52.3735 36.2261L23.6631 36.2769L19.4038 16.0596ZM25.5547 54.9517C24.4502 54.9517 23.5488 54.0503 23.5488 52.9458C23.5488 51.8413 24.4502 50.9399 25.5547 50.9399C26.6592 50.9399 27.5605 51.8413 27.5605 52.9458C27.5605 53.4778 27.3492 53.988 26.973 54.3642C26.5969 54.7403 26.0867 54.9517 25.5547 54.9517ZM46.1909 54.9517C45.0864 54.9517 44.1851 54.0503 44.1851 52.9458C44.1851 51.8413 45.0864 50.9399 46.1909 50.9399C47.2954 50.9399 48.1968 51.8413 48.1968 52.9458C48.1968 53.4778 47.9854 53.988 47.6093 54.3642C47.2331 54.7403 46.7229 54.9517 46.1909 54.9517Z" fill="url(#paint0_linear)"/>
<defs>
<linearGradient id="paint0_linear" x1="3.88379" y1="59.4585" x2="53.7105" y2="59.4585" gradientUnits="userSpaceOnUse">
<stop stop-color="#DE7903"/>
<stop offset="1" stop-color="#F7911E"/>
</linearGradient>
</defs>
</svg>
