<svg width="27" height="27" viewBox="0 0 27 27" fill="none" xmlns="http://www.w3.org/2000/svg">
<path d="M24.3339 18.5071H8.63223L9.4206 16.9014L22.5198 16.8776C22.9628 16.8776 23.3425 16.5612 23.4216 16.1235L25.2356 5.96953C25.2831 5.70322 25.2119 5.429 25.0379 5.2207C24.9519 5.11819 24.8446 5.03561 24.7235 4.9787C24.6024 4.92178 24.4703 4.8919 24.3365 4.89111L7.67246 4.83574L7.53008 4.16602C7.44043 3.73887 7.05547 3.42773 6.61777 3.42773H2.54404C2.29719 3.42773 2.06045 3.5258 1.8859 3.70035C1.71134 3.8749 1.61328 4.11164 1.61328 4.3585C1.61328 4.60535 1.71134 4.84209 1.8859 5.01664C2.06045 5.1912 2.29719 5.28926 2.54404 5.28926H5.86367L6.48594 8.24766L8.01787 15.6647L6.04561 18.8842C5.94318 19.0224 5.88149 19.1866 5.86751 19.358C5.85353 19.5295 5.88782 19.7015 5.9665 19.8545C6.12471 20.1683 6.44375 20.366 6.79707 20.366H8.45293C8.09992 20.8349 7.90925 21.406 7.90977 21.9929C7.90977 23.4853 9.12266 24.6981 10.615 24.6981C12.1074 24.6981 13.3203 23.4853 13.3203 21.9929C13.3203 21.4049 13.1252 20.8327 12.7771 20.366H17.0249C16.6719 20.8349 16.4812 21.406 16.4817 21.9929C16.4817 23.4853 17.6946 24.6981 19.187 24.6981C20.6794 24.6981 21.8923 23.4853 21.8923 21.9929C21.8923 21.4049 21.6972 20.8327 21.3491 20.366H24.3365C24.848 20.366 25.2673 19.9494 25.2673 19.4353C25.2658 19.1887 25.1668 18.9527 24.9919 18.7788C24.817 18.6049 24.5805 18.5073 24.3339 18.5071ZM8.06006 6.6709L23.2423 6.721L21.7552 15.0478L9.8293 15.0688L8.06006 6.6709ZM10.615 22.8261C10.1562 22.8261 9.78184 22.4517 9.78184 21.9929C9.78184 21.5341 10.1562 21.1597 10.615 21.1597C11.0738 21.1597 11.4482 21.5341 11.4482 21.9929C11.4482 22.2139 11.3605 22.4258 11.2042 22.582C11.0479 22.7383 10.836 22.8261 10.615 22.8261ZM19.187 22.8261C18.7282 22.8261 18.3538 22.4517 18.3538 21.9929C18.3538 21.5341 18.7282 21.1597 19.187 21.1597C19.6458 21.1597 20.0202 21.5341 20.0202 21.9929C20.0202 22.2139 19.9324 22.4258 19.7762 22.582C19.6199 22.7383 19.408 22.8261 19.187 22.8261Z" fill="#26247B"/>
</svg>
