<svg width="20" height="20" viewBox="0 0 20 20" fill="none" xmlns="http://www.w3.org/2000/svg">
<path d="M15.8333 6.66668V5.83336C15.8333 2.6175 13.2167 0 10 0C6.78333 0 4.16669 2.6175 4.16669 5.83332V6.66664C2.78837 6.66664 1.66669 7.78832 1.66669 9.16664V17.5C1.66669 18.8783 2.78837 20 4.16669 20H15.8334C17.2117 20 18.3334 18.8783 18.3334 17.5V9.16668C18.3333 7.78832 17.2117 6.66668 15.8333 6.66668ZM5.83333 5.83332C5.83333 3.53582 7.70251 1.66664 10 1.66664C12.2975 1.66664 14.1667 3.53582 14.1667 5.83332V6.66664H5.83333V5.83332ZM16.6667 17.5C16.6667 17.96 16.2925 18.3333 15.8334 18.3333H4.16669C3.70751 18.3333 3.33337 17.96 3.33337 17.5V9.16668C3.33337 8.70668 3.70755 8.33336 4.16669 8.33336H15.8334C16.2925 8.33336 16.6667 8.70668 16.6667 9.16668V17.5Z" fill="#C4C4C4"/>
<path d="M10 9.58331C8.62168 9.58331 7.5 10.705 7.5 12.0833C7.5 13.1683 8.19918 14.085 9.16668 14.43V15.8333C9.16668 16.2941 9.54 16.6666 10 16.6666C10.46 16.6666 10.8333 16.2941 10.8333 15.8333V14.43C11.8008 14.085 12.5 13.1683 12.5 12.0833C12.5 10.705 11.3783 9.58331 10 9.58331ZM10 12.9167C9.54082 12.9167 9.16668 12.5433 9.16668 12.0833C9.16668 11.6233 9.54082 11.25 10 11.25C10.4592 11.25 10.8333 11.6233 10.8333 12.0833C10.8333 12.5433 10.4592 12.9167 10 12.9167Z" fill="#C4C4C4"/>
</svg>
