<svg width="14" height="14" viewBox="0 0 14 14" fill="none" xmlns="http://www.w3.org/2000/svg">
<path d="M13.0454 5.72727H8.27269V0.954545C8.27269 0.427634 7.84505 0 7.31814 0H6.68182C6.15491 0 5.72727 0.427634 5.72727 0.954545V5.72727H0.954545C0.427634 5.72727 0 6.15491 0 6.68182V7.31814C0 7.84505 0.427634 8.27269 0.954545 8.27269H5.72727V13.0454C5.72727 13.5723 6.15491 14 6.68182 14H7.31814C7.84505 14 8.27269 13.5723 8.27269 13.0454V8.27269H13.0454C13.5723 8.27269 14 7.84505 14 7.31814V6.68182C14 6.15491 13.5723 5.72727 13.0454 5.72727Z" fill="#26247B"/>
</svg>
