<svg width="34" height="34" viewBox="0 0 34 34" fill="none" xmlns="http://www.w3.org/2000/svg">
<path d="M32.9683 30.365L26.735 24.15C28.7461 21.5878 29.8374 18.4239 29.8333 15.1667C29.8333 12.2659 28.9732 9.43023 27.3616 7.01831C25.75 4.60639 23.4593 2.72653 20.7794 1.61644C18.0994 0.506355 15.1504 0.215906 12.3053 0.781822C9.46029 1.34774 6.84694 2.7446 4.79577 4.79577C2.7446 6.84694 1.34774 9.46029 0.781822 12.3053C0.215906 15.1504 0.506355 18.0994 1.61644 20.7794C2.72653 23.4593 4.60639 25.75 7.01831 27.3616C9.43023 28.9732 12.2659 29.8333 15.1667 29.8333C18.4239 29.8374 21.5878 28.7461 24.15 26.735L30.365 32.9683C30.5354 33.1402 30.7382 33.2766 30.9616 33.3696C31.185 33.4627 31.4247 33.5106 31.6667 33.5106C31.9087 33.5106 32.1483 33.4627 32.3717 33.3696C32.5951 33.2766 32.7979 33.1402 32.9683 32.9683C33.1402 32.7979 33.2766 32.5951 33.3696 32.3717C33.4627 32.1483 33.5106 31.9087 33.5106 31.6667C33.5106 31.4247 33.4627 31.185 33.3696 30.9616C33.2766 30.7382 33.1402 30.5354 32.9683 30.365ZM4.16667 15.1667C4.16667 12.9911 4.81181 10.8643 6.02051 9.0554C7.2292 7.24646 8.94717 5.83656 10.9572 5.004C12.9671 4.17143 15.1789 3.9536 17.3127 4.37803C19.4465 4.80247 21.4065 5.85012 22.9448 7.3885C24.4832 8.92688 25.5309 10.8869 25.9553 13.0207C26.3797 15.1545 26.1619 17.3662 25.3293 19.3762C24.4968 21.3862 23.0869 23.1041 21.2779 24.3128C19.469 25.5215 17.3423 26.1667 15.1667 26.1667C12.2493 26.1667 9.4514 25.0077 7.3885 22.9448C5.3256 20.8819 4.16667 18.0841 4.16667 15.1667Z" fill="white"/>
</svg>
