<svg width="16" height="16" viewBox="0 0 16 16" fill="none" xmlns="http://www.w3.org/2000/svg">
<g clip-path="url(#clip0_1150_4182)">
<path d="M8.74228e-08 2C6.42368e-08 1.46957 0.210714 0.960859 0.585786 0.585786C0.960859 0.210714 1.46957 -6.42368e-08 2 -8.74228e-08L14 -6.11959e-07C14.5304 -6.35145e-07 15.0391 0.210713 15.4142 0.585786C15.7893 0.960858 16 1.46957 16 2L16 14C16 14.5304 15.7893 15.0391 15.4142 15.4142C15.0391 15.7893 14.5304 16 14 16L2 16C1.46957 16 0.96086 15.7893 0.585787 15.4142C0.210714 15.0391 6.35145e-07 14.5304 6.11959e-07 14L8.74228e-08 2ZM4.5 8.5L10.293 8.5L8.146 10.646C8.09951 10.6925 8.06263 10.7477 8.03748 10.8084C8.01232 10.8692 7.99937 10.9343 7.99937 11C7.99937 11.0657 8.01232 11.1308 8.03748 11.1916C8.06263 11.2523 8.09951 11.3075 8.146 11.354C8.19249 11.4005 8.24768 11.4374 8.30842 11.4625C8.36916 11.4877 8.43426 11.5006 8.5 11.5006C8.56574 11.5006 8.63084 11.4877 8.69158 11.4625C8.75232 11.4374 8.80751 11.4005 8.854 11.354L11.854 8.354C11.9006 8.30755 11.9375 8.25238 11.9627 8.19163C11.9879 8.13089 12.0009 8.06577 12.0009 8C12.0009 7.93423 11.9879 7.86911 11.9627 7.80837C11.9375 7.74762 11.9006 7.69244 11.854 7.646L8.854 4.646C8.80751 4.59951 8.75232 4.56264 8.69158 4.53748C8.63084 4.51232 8.56574 4.49937 8.5 4.49937C8.43426 4.49937 8.36916 4.51232 8.30842 4.53748C8.24768 4.56264 8.19249 4.59951 8.146 4.646C8.05211 4.73989 7.99937 4.86722 7.99937 5C7.99937 5.06574 8.01232 5.13084 8.03748 5.19158C8.06263 5.25232 8.09951 5.30751 8.146 5.354L10.293 7.5L4.5 7.5C4.36739 7.5 4.24021 7.55268 4.14645 7.64645C4.05268 7.74021 4 7.86739 4 8C4 8.13261 4.05268 8.25979 4.14645 8.35355C4.24021 8.44732 4.36739 8.5 4.5 8.5Z" fill="#26247B"/>
</g>
<defs>
<clipPath id="clip0_1150_4182">
<rect width="16" height="16" fill="white" transform="matrix(4.37114e-08 1 1 -4.37114e-08 0 0)"/>
</clipPath>
</defs>
</svg>
