<svg width="43" height="43" viewBox="0 0 43 43" fill="none" xmlns="http://www.w3.org/2000/svg">
<path d="M43 37.625C43 39.0505 42.4337 40.4177 41.4257 41.4257C40.4177 42.4337 39.0505 43 37.625 43L5.375 43C3.94946 43 2.58231 42.4337 1.5743 41.4257C0.566296 40.4177 0 39.0505 0 37.625L0 5.375C0 3.94946 0.566296 2.58231 1.5743 1.5743C2.58231 0.566296 3.94946 0 5.375 0L37.625 0C39.0505 0 40.4177 0.566296 41.4257 1.5743C42.4337 2.58231 43 3.94946 43 5.375L43 37.625ZM30.9063 20.1562H15.3376L21.1076 14.3889C21.2326 14.2639 21.3317 14.1156 21.3993 13.9524C21.4669 13.7891 21.5017 13.6142 21.5017 13.4375C21.5017 13.2608 21.4669 13.0859 21.3993 12.9226C21.3317 12.7594 21.2326 12.6111 21.1076 12.4861C20.9827 12.3612 20.8344 12.2621 20.6711 12.1945C20.5079 12.1269 20.3329 12.0921 20.1563 12.0921C19.9796 12.0921 19.8046 12.1269 19.6414 12.1945C19.4781 12.2621 19.3298 12.3612 19.2049 12.4861L11.1424 20.5486C11.0172 20.6734 10.918 20.8217 10.8502 20.985C10.7825 21.1482 10.7476 21.3232 10.7476 21.5C10.7476 21.6768 10.7825 21.8518 10.8502 22.015C10.918 22.1783 11.0172 22.3266 11.1424 22.4514L19.2049 30.5139C19.3298 30.6388 19.4781 30.7379 19.6414 30.8055C19.8046 30.8731 19.9796 30.9079 20.1563 30.9079C20.3329 30.9079 20.5079 30.8731 20.6711 30.8055C20.8344 30.7379 20.9827 30.6388 21.1076 30.5139C21.3599 30.2616 21.5017 29.9193 21.5017 29.5625C21.5017 29.3858 21.4669 29.2109 21.3993 29.0476C21.3317 28.8844 21.2326 28.7361 21.1076 28.6111L15.3376 22.8437H30.9063C31.2626 22.8437 31.6044 22.7022 31.8564 22.4502C32.1084 22.1982 32.25 21.8564 32.25 21.5C32.25 21.1436 32.1084 20.8018 31.8564 20.5498C31.6044 20.2978 31.2626 20.1562 30.9063 20.1562Z" fill="white"/>
</svg>
