<svg width="43" height="43" viewBox="0 0 43 43" fill="none" xmlns="http://www.w3.org/2000/svg">
<path d="M2.34949e-07 5.375C1.72636e-07 3.94946 0.566293 2.58231 1.5743 1.5743C2.58231 0.566293 3.94946 -1.72636e-07 5.375 -2.34949e-07L37.625 -1.64464e-06C39.0505 -1.70695e-06 40.4177 0.566291 41.4257 1.5743C42.4337 2.58231 43 3.94946 43 5.375L43 37.625C43 39.0505 42.4337 40.4177 41.4257 41.4257C40.4177 42.4337 39.0505 43 37.625 43L5.375 43C3.94946 43 2.58231 42.4337 1.5743 41.4257C0.566295 40.4177 1.70695e-06 39.0505 1.64464e-06 37.625L2.34949e-07 5.375ZM12.0938 22.8437L27.6624 22.8437L21.8924 28.6111C21.7674 28.7361 21.6683 28.8844 21.6007 29.0476C21.5331 29.2109 21.4983 29.3858 21.4983 29.5625C21.4983 29.7392 21.5331 29.9141 21.6007 30.0774C21.6683 30.2406 21.7674 30.3889 21.8924 30.5139C22.0173 30.6388 22.1656 30.7379 22.3289 30.8055C22.4921 30.8731 22.6671 30.9079 22.8438 30.9079C23.0204 30.9079 23.1954 30.8731 23.3586 30.8055C23.5219 30.7379 23.6702 30.6388 23.7951 30.5139L31.8576 22.4514C31.9828 22.3266 32.082 22.1783 32.1498 22.015C32.2175 21.8518 32.2524 21.6767 32.2524 21.5C32.2524 21.3232 32.2175 21.1482 32.1498 20.985C32.082 20.8217 31.9828 20.6734 31.8576 20.5486L23.7951 12.4861C23.6702 12.3612 23.5219 12.2621 23.3586 12.1945C23.1954 12.1269 23.0204 12.0921 22.8438 12.0921C22.6671 12.0921 22.4921 12.1269 22.3289 12.1945C22.1656 12.2621 22.0173 12.3612 21.8924 12.4861C21.6401 12.7384 21.4983 13.0807 21.4983 13.4375C21.4983 13.6142 21.5331 13.7891 21.6007 13.9524C21.6683 14.1156 21.7674 14.2639 21.8924 14.3889L27.6624 20.1562L12.0938 20.1562C11.7374 20.1562 11.3956 20.2978 11.1436 20.5498C10.8916 20.8018 10.75 21.1436 10.75 21.5C10.75 21.8564 10.8916 22.1982 11.1436 22.4502C11.3956 22.7022 11.7374 22.8437 12.0938 22.8437Z" fill="white"/>
</svg>
