<svg width="24" height="24" viewBox="0 0 24 24" fill="none" xmlns="http://www.w3.org/2000/svg">
<g clip-path="url(#clip0)">
<path d="M18.126 14.2689C16.4579 14.2689 15.1008 15.626 15.1008 17.2941C15.1008 18.9622 16.4579 20.3193 18.126 20.3193C19.7945 20.3193 21.1513 18.9622 21.1513 17.2941C21.1513 15.626 19.7942 14.2689 18.126 14.2689ZM18.126 18.8067C17.2919 18.8067 16.6134 18.1283 16.6134 17.2941C16.6134 16.4599 17.2919 15.7815 18.126 15.7815C18.9602 15.7815 19.6387 16.4599 19.6387 17.2941C19.6387 18.1283 18.9602 18.8067 18.126 18.8067Z" fill="#C4C4C4"/>
<path d="M7.78992 14.2689C6.12178 14.2689 4.7647 15.626 4.7647 17.2941C4.7647 18.9622 6.12178 20.3193 7.78992 20.3193C9.45806 20.3193 10.8151 18.9622 10.8151 17.2941C10.8151 15.626 9.45806 14.2689 7.78992 14.2689ZM7.78992 18.8067C6.95573 18.8067 6.27731 18.1283 6.27731 17.2941C6.27731 16.4599 6.95573 15.7815 7.78992 15.7815C8.62388 15.7815 9.30253 16.4599 9.30253 17.2941C9.30253 18.1283 8.62411 18.8067 7.78992 18.8067Z" fill="#C4C4C4"/>
<path d="M20.1633 5.60978C20.0347 5.35441 19.7733 5.1933 19.4874 5.1933H15.5042V6.70591H19.021L21.0804 10.802L22.4322 10.1224L20.1633 5.60978Z" fill="#C4C4C4"/>
<path d="M15.8572 16.5631H10.1345V18.0757H15.8572V16.5631Z" fill="#C4C4C4"/>
<path d="M5.52096 16.5631H2.89915C2.4814 16.5631 2.14286 16.9017 2.14286 17.3194C2.14286 17.7371 2.48144 18.0756 2.89915 18.0756H5.52101C5.93876 18.0756 6.27729 17.7371 6.27729 17.3194C6.27729 16.9016 5.93871 16.5631 5.52096 16.5631Z" fill="#C4C4C4"/>
<path d="M23.8412 11.9395L22.3536 10.0235C22.2106 9.83896 21.99 9.73105 21.7563 9.73105H16.2605V4.43695C16.2605 4.0192 15.9219 3.68066 15.5042 3.68066H2.89915C2.4814 3.68066 2.14286 4.01924 2.14286 4.43695C2.14286 4.85465 2.48144 5.19323 2.89915 5.19323H14.7479V10.4873C14.7479 10.9051 15.0865 11.2436 15.5042 11.2436H21.386L22.4874 12.6624V16.5629H20.3949C19.9772 16.5629 19.6387 16.9015 19.6387 17.3192C19.6387 17.737 19.9772 18.0755 20.3949 18.0755H23.2437C23.6614 18.0755 24 17.7369 24 17.3192V12.4034C24 12.2354 23.944 12.0721 23.8412 11.9395Z" fill="#C4C4C4"/>
<path d="M5.47057 12.7311H1.99155C1.5738 12.7311 1.23527 13.0697 1.23527 13.4874C1.23527 13.9051 1.57385 14.2437 1.99155 14.2437H5.47052C5.88827 14.2437 6.2268 13.9051 6.2268 13.4874C6.22685 13.0697 5.88827 12.7311 5.47057 12.7311Z" fill="#C4C4C4"/>
<path d="M7.21008 9.75629H0.756281C0.338578 9.75629 0 10.0949 0 10.5126C0 10.9304 0.338578 11.2689 0.756281 11.2689H7.21008C7.62783 11.2689 7.96636 10.9303 7.96636 10.5126C7.96636 10.0949 7.62783 9.75629 7.21008 9.75629Z" fill="#C4C4C4"/>
<path d="M8.44535 6.78149H1.99155C1.5738 6.78149 1.23527 7.12007 1.23527 7.53778C1.23527 7.95553 1.57385 8.29406 1.99155 8.29406H8.44535C8.8631 8.29406 9.20163 7.95548 9.20163 7.53778C9.20168 7.12007 8.8631 6.78149 8.44535 6.78149Z" fill="#C4C4C4"/>
</g>
<defs>
<clipPath id="clip0">
<rect width="24" height="24" fill="white"/>
</clipPath>
</defs>
</svg>
