<svg width="46" height="16" viewBox="0 0 46 16" fill="none" xmlns="http://www.w3.org/2000/svg">
<path d="M33.3908 5.99083H31.7836V11.4557C31.7836 11.558 31.6952 11.6456 31.592 11.6456H30.3534C30.2502 11.6456 30.1617 11.558 30.1617 11.4557V5.99083H28.5398C28.4956 5.99083 28.4366 5.97622 28.4071 5.94699C28.3776 5.91777 28.3481 5.87394 28.3481 5.81549V4.8511C28.3481 4.80727 28.3629 4.74882 28.4071 4.7196C28.4366 4.69037 28.4956 4.66115 28.5398 4.67576H33.3908C33.494 4.67576 33.5825 4.74882 33.5825 4.8511V5.81549C33.5825 5.91777 33.494 5.99083 33.3908 5.99083Z" fill="#414141"/>
<path d="M38.5661 11.6019C37.9321 11.6896 37.2833 11.7334 36.6493 11.7188C35.4255 11.7188 34.3491 11.412 34.3491 9.70238V6.59005C34.3491 4.88046 35.4402 4.58822 36.664 4.58822C37.298 4.57361 37.9321 4.61744 38.5661 4.70511C38.6988 4.71973 38.7578 4.77817 38.7578 4.89507V5.77178C38.7578 5.87406 38.6693 5.96174 38.5661 5.96174H36.5756C36.1332 5.96174 35.971 6.10785 35.971 6.60466V7.45215H38.4923C38.5956 7.45215 38.684 7.53982 38.684 7.6421V8.53343C38.684 8.63571 38.5956 8.72338 38.4923 8.72338H35.971V9.71699C35.971 10.1992 36.1332 10.3599 36.5756 10.3599H38.5661C38.6693 10.3599 38.7578 10.4476 38.7578 10.5499V11.4266C38.7578 11.5289 38.6988 11.5873 38.5661 11.6019Z" fill="#414141"/>
<path d="M45.7026 11.6455H44.1987C44.0955 11.6601 43.9922 11.6016 43.948 11.4993L42.6357 9.45367L41.4562 11.4555C41.3972 11.5724 41.3235 11.6455 41.2203 11.6455H39.8195C39.79 11.6455 39.7458 11.6455 39.7163 11.6162C39.6868 11.587 39.6721 11.5578 39.6721 11.5139C39.6721 11.4847 39.6868 11.4701 39.6868 11.4555L41.7363 8.06555L39.6573 4.85094C39.6426 4.83632 39.6426 4.8071 39.6426 4.79249C39.6426 4.71943 39.7163 4.66098 39.79 4.67559H41.3382C41.4414 4.67559 41.5151 4.76327 41.5741 4.85094L42.7832 6.75048L43.9627 4.85094C44.007 4.74865 44.0955 4.69021 44.1987 4.67559H45.5994C45.6731 4.67559 45.7468 4.71943 45.7468 4.79249C45.7468 4.8071 45.7321 4.83632 45.7321 4.85094L43.6679 8.09477L45.8206 11.4555C45.8353 11.4847 45.8501 11.5139 45.8501 11.5432C45.8353 11.6016 45.7763 11.6455 45.7026 11.6455Z" fill="#414141"/>
<path d="M26.0922 4.69043C26.0185 4.69043 25.9595 4.73427 25.9447 4.80732L24.5735 9.84842C24.5587 9.9507 24.5293 9.99454 24.4408 9.99454C24.3523 9.99454 24.3228 9.9507 24.3081 9.84842L22.9368 4.80732C22.9221 4.73427 22.8631 4.69043 22.7894 4.69043H21.4329C21.3887 4.69043 21.3444 4.70504 21.3149 4.74888C21.2854 4.7781 21.2707 4.82194 21.2854 4.86577C21.2854 4.86577 22.9663 10.6521 22.9811 10.7105C23.2022 11.3973 23.7478 11.7333 24.4408 11.7333C25.1043 11.7626 25.7088 11.3388 25.9005 10.7105C25.93 10.6375 27.5666 4.86577 27.5666 4.86577C27.5814 4.82194 27.5666 4.7781 27.5372 4.74888C27.5077 4.71965 27.4634 4.69043 27.4192 4.69043H26.0922Z" fill="#414141"/>
<path d="M18.425 0H4.31441C3.79835 0 3.32652 0.277625 3.07586 0.70137C2.81046 1.13973 2.79572 1.68037 3.03163 2.11872L4.44711 4.77808H1.88155C1.55717 4.77808 1.24753 4.93881 1.0706 5.21644C0.893664 5.49406 0.893664 5.84475 1.04111 6.13699L5.58245 14.6411C5.74464 14.9479 6.06902 15.1379 6.40814 15.1379C6.74727 15.1379 7.07165 14.9479 7.23384 14.6411L8.47239 12.3324L10.0206 15.2402C10.2712 15.7078 10.7725 16 11.3033 16C11.8342 16 12.3355 15.7078 12.5861 15.2402L19.6635 2.04566C19.8994 1.60731 19.8847 1.08128 19.6193 0.672146C19.3834 0.248402 18.9116 0 18.425 0ZM12.1143 5.56712L9.01794 11.3242C8.91472 11.5288 8.7083 11.6457 8.47239 11.6457C8.23647 11.6457 8.03005 11.5142 7.92684 11.3242L4.87471 5.62557C4.78624 5.45023 4.78624 5.24566 4.88945 5.07032C4.99266 4.89498 5.18434 4.79269 5.37602 4.79269H11.6277C11.8194 4.79269 11.9963 4.88036 12.0848 5.0411C12.2028 5.20183 12.2028 5.40639 12.1143 5.56712Z" fill="#414141"/>
</svg>
