<svg width="30" height="30" viewBox="0 0 30 30" fill="none" xmlns="http://www.w3.org/2000/svg">
<g clip-path="url(#clip0)">
<path d="M27.9832 7.78815C27.8391 7.21242 27.5456 6.68491 27.1324 6.25891C26.7192 5.83291 26.2009 5.52349 25.6298 5.36193C23.5432 4.85242 15.197 4.85242 15.197 4.85242C15.197 4.85242 6.85078 4.85242 4.76422 5.41045C4.19314 5.57202 3.67482 5.88143 3.26159 6.30743C2.84837 6.73344 2.55488 7.26095 2.41078 7.83668C2.02891 9.95424 1.84211 12.1024 1.85274 14.2541C1.83913 16.4219 2.02594 18.5865 2.41078 20.72C2.56965 21.2778 2.86971 21.7852 3.28197 22.1933C3.69423 22.6013 4.20476 22.8961 4.76422 23.0491C6.85078 23.6072 15.197 23.6072 15.197 23.6072C15.197 23.6072 23.5432 23.6072 25.6298 23.0491C26.2009 22.8876 26.7192 22.5782 27.1324 22.1522C27.5456 21.7261 27.8391 21.1986 27.9832 20.6229C28.3622 18.5213 28.5489 16.3895 28.5413 14.2541C28.5549 12.0862 28.3681 9.92166 27.9832 7.78815V7.78815Z" stroke="white" stroke-width="2" stroke-linecap="round" stroke-linejoin="round"/>
<path d="M12.4675 18.221L19.4429 14.2541L12.4675 10.2872V18.221Z" stroke="white" stroke-width="2" stroke-linecap="round" stroke-linejoin="round"/>
</g>
<defs>
<clipPath id="clip0">
<rect width="29.1148" height="29.1148" fill="white" transform="translate(0.639648)"/>
</clipPath>
</defs>
</svg>
